<?xml version="1.0" standalone="no"?>
<!DOCTYPE svg PUBLIC "-//W3C//DTD SVG 20010904//EN"
 "http://www.w3.org/TR/2001/REC-SVG-20010904/DTD/svg10.dtd">
<svg version="1.0" xmlns="http://www.w3.org/2000/svg"
 width="900.000000pt" height="900.000000pt" viewBox="0 0 900.000000 900.000000"
 preserveAspectRatio="xMidYMid meet">

<g transform="translate(0.000000,900.000000) scale(0.100000,-0.100000)"
fill="#000000" stroke="none">
<path d="M5405 7446 c-135 -49 -188 -116 -255 -321 -29 -90 -33 -117 -39 -265
-8 -194 2 -327 29 -379 10 -20 29 -56 41 -80 27 -52 120 -149 208 -215 35 -26
59 -51 55 -56 -5 -4 -45 -18 -89 -29 -110 -30 -231 -93 -279 -144 -172 -188
-193 -398 -66 -662 22 -44 67 -114 102 -155 54 -64 76 -81 152 -120 83 -42 93
-45 165 -44 156 3 260 54 537 264 54 41 106 82 115 90 8 8 51 44 95 80 118 97
185 168 224 238 19 34 58 100 86 145 69 113 80 168 54 290 -21 102 -64 227
-112 327 -43 89 -176 320 -198 345 -10 11 -57 78 -105 149 -134 200 -206 284
-355 413 -79 68 -139 103 -229 134 -65 23 -60 23 -136 -5z"/>
<path d="M6893 6522 c-7 -4 -10 -35 -10 -82 l2 -75 -40 -2 c-48 -3 -83 -27
-110 -76 -18 -34 -19 -39 -5 -79 22 -62 69 -92 135 -84 42 4 55 11 83 43 31
35 33 43 30 93 l-3 55 59 30 c32 17 58 33 57 38 0 4 -1 12 -1 17 0 17 -38 11
-52 -9 -15 -20 -69 -51 -92 -51 -21 0 -28 32 -24 112 3 69 -4 86 -29 70z"/>
<path d="M7675 6065 c-287 -22 -629 -101 -807 -185 -70 -33 -116 -95 -207
-280 -74 -152 -82 -173 -96 -270 -9 -58 -20 -154 -25 -215 -5 -60 -14 -146
-21 -190 -6 -44 -12 -138 -12 -210 -1 -177 13 -220 97 -312 87 -94 185 -142
335 -164 164 -23 325 17 486 121 103 68 136 106 197 235 25 54 28 71 28 162 0
85 -4 114 -26 175 -15 40 -33 82 -41 94 -21 33 -2 38 75 21 205 -46 366 -43
507 8 77 28 115 51 233 142 124 97 275 297 312 415 23 75 26 193 6 242 -36 87
-145 157 -286 185 -164 32 -528 44 -755 26z"/>
<path d="M750 5881 c-154 -22 -293 -170 -321 -343 -39 -228 50 -439 216 -519
53 -26 71 -29 155 -29 84 0 102 3 155 29 33 16 82 51 109 79 l48 50 -38 51
c-21 28 -45 51 -54 51 -9 0 -29 -14 -46 -31 -49 -52 -101 -73 -174 -73 -79 1
-113 17 -169 80 -54 62 -75 132 -69 233 14 238 234 348 401 200 25 -21 52 -39
60 -39 16 0 87 79 87 97 0 6 -24 32 -52 60 -89 84 -196 120 -308 104z"/>
<path d="M1242 5433 l3 -427 48 -3 c88 -6 87 -8 87 198 l0 180 118 -3 117 -3
5 -185 5 -185 47 -3 c26 -2 56 2 68 8 20 10 20 19 20 415 0 222 -3 410 -6 419
-5 12 -21 16 -70 16 l-63 0 -3 -157 -3 -158 -117 -3 -118 -3 0 145 c0 79 -3
151 -6 160 -5 12 -21 16 -70 16 l-64 0 2 -427z"/>
<path d="M1922 5433 l3 -428 188 -3 c210 -3 194 -9 201 78 6 89 4 90 -133 90
-86 0 -120 3 -123 13 -7 19 -2 183 6 196 5 7 48 11 126 11 85 0 119 3 123 13
3 9 2 81 -2 140 -1 4 -57 7 -126 7 -69 0 -125 3 -125 8 -1 4 -3 32 -5 62 -2
31 0 62 4 69 6 9 42 14 126 17 64 1 120 5 123 8 4 5 6 97 3 139 -1 4 -89 7
-196 7 l-195 0 2 -427z"/>
<path d="M2447 5854 c-4 -4 -7 -195 -7 -425 l0 -419 23 -5 c18 -5 52 -3 100 4
4 0 7 118 7 260 0 145 4 262 9 265 5 4 75 -113 155 -258 81 -145 152 -266 159
-269 7 -2 35 -4 62 -3 l50 1 3 428 2 428 -62 -3 -63 -3 -3 -262 c-1 -145 -6
-263 -11 -263 -5 0 -18 17 -29 38 -11 20 -76 138 -144 262 l-123 225 -61 3
c-33 2 -63 0 -67 -4z"/>
<path d="M3187 5853 c-4 -3 -7 -192 -7 -419 0 -398 1 -414 19 -424 11 -5 35
-10 55 -10 70 0 66 -15 66 272 0 203 3 259 13 256 6 -3 17 -13 22 -24 6 -10
26 -48 46 -84 20 -36 78 -141 129 -233 51 -92 101 -172 111 -177 21 -12 89
-13 107 -2 10 7 12 99 10 428 l-3 419 -62 3 -63 3 0 -266 c0 -152 -4 -265 -9
-265 -10 0 -91 141 -226 388 l-77 142 -63 0 c-34 0 -65 -3 -68 -7z"/>
<path d="M4130 5815 c-11 -26 -20 -50 -20 -55 0 -5 -20 -69 -44 -142 -141
-427 -196 -600 -191 -609 8 -12 101 -12 124 0 9 6 27 43 41 86 18 57 29 77 44
81 12 2 79 3 151 2 l129 -3 23 -74 c13 -41 29 -81 35 -88 13 -16 109 -18 125
-2 8 8 -3 52 -38 157 -26 81 -88 269 -136 417 l-88 270 -68 3 -67 3 -20 -46z
m134 -330 c20 -61 36 -118 36 -128 0 -15 -11 -17 -85 -17 -78 0 -85 2 -85 20
0 15 41 146 75 239 9 24 21 1 59 -114z"/>
<path d="M4667 5853 c-4 -3 -7 -194 -7 -424 0 -461 -5 -429 65 -429 70 0 65
-33 65 436 l0 424 -58 0 c-32 0 -62 -3 -65 -7z"/>
<path d="M5506 4710 c-79 -24 -154 -109 -183 -209 -21 -75 -14 -219 14 -283
26 -58 92 -131 140 -153 50 -24 140 -22 190 3 133 68 198 270 142 444 -19 61
-32 82 -78 128 -73 73 -142 94 -225 70z"/>
<path d="M1615 4691 c-68 -31 -90 -63 -90 -131 0 -72 16 -96 106 -163 179
-133 209 -170 189 -232 -19 -58 -99 -98 -163 -81 -14 3 -48 27 -76 52 -47 42
-54 46 -77 36 -32 -15 -31 -25 13 -73 53 -59 99 -79 180 -79 90 0 160 38 192
103 51 104 9 177 -169 297 -121 82 -149 138 -94 194 22 21 36 26 75 26 42 0
55 -5 88 -35 44 -40 61 -43 86 -15 18 20 18 21 -9 49 -65 67 -170 89 -251 52z"/>
<path d="M502 4688 c-9 -9 -12 -95 -12 -325 0 -304 1 -313 20 -323 12 -6 30
-8 40 -5 19 6 20 17 20 330 0 285 -2 324 -16 329 -24 9 -39 7 -52 -6z"/>
<path d="M1283 4693 c-10 -3 -13 -62 -13 -244 0 -137 -4 -239 -9 -239 -5 0
-115 108 -244 240 -128 132 -239 240 -245 240 -9 0 -12 -86 -12 -325 l0 -325
25 -6 c52 -13 55 -2 55 247 0 131 4 229 9 229 5 0 115 -106 243 -237 145 -146
239 -233 246 -229 17 10 17 627 0 644 -12 12 -33 14 -55 5z"/>
<path d="M2022 4691 c-8 -4 -12 -19 -10 -32 3 -23 8 -24 78 -27 44 -2 78 -8
82 -15 4 -7 8 -139 8 -294 l0 -283 35 0 35 0 2 293 3 292 74 5 c81 5 107 23
82 54 -11 14 -41 16 -195 16 -99 0 -187 -4 -194 -9z"/>
<path d="M2553 4693 c-10 -4 -13 -79 -13 -328 0 -290 2 -323 16 -329 9 -4 25
-4 35 -1 18 6 19 23 19 330 0 285 -2 324 -16 329 -18 7 -23 7 -41 -1z"/>
<path d="M2740 4685 c-6 -8 -9 -23 -5 -35 6 -18 15 -20 80 -20 70 0 73 -1 79
-26 4 -15 6 -146 5 -292 -2 -284 -1 -288 49 -275 22 5 22 8 24 297 l3 291 72
3 c80 3 102 17 83 51 -10 20 -19 21 -194 21 -148 0 -186 -3 -196 -15z"/>
<path d="M3280 4686 c-8 -11 -11 -82 -8 -270 l3 -254 30 -44 c45 -65 118 -98
214 -98 91 0 142 20 188 73 18 20 37 55 43 78 13 49 14 509 1 522 -5 5 -21 7
-35 3 l-25 -6 -3 -253 c-3 -248 -3 -253 -27 -286 -28 -39 -91 -71 -141 -71
-19 0 -59 11 -88 25 -79 37 -82 47 -82 333 0 172 -3 241 -12 250 -16 16 -43
15 -58 -2z"/>
<path d="M3900 4685 c-6 -8 -9 -23 -5 -34 5 -18 16 -21 83 -23 l77 -3 3 -292
2 -293 35 0 35 0 0 283 c0 155 4 287 8 294 4 7 38 13 82 15 70 3 75 4 78 27 2
13 -2 28 -10 32 -7 5 -95 9 -194 9 -147 0 -184 -3 -194 -15z"/>
<path d="M4442 4688 c-16 -16 -17 -634 -2 -643 6 -4 99 -6 207 -6 203 0 228 4
207 39 -10 15 -33 17 -178 20 l-166 2 0 125 c0 93 3 125 13 125 6 1 78 1 158
0 123 -1 149 2 163 15 9 9 16 19 16 23 -1 27 -23 32 -180 34 l-165 3 -3 102
-3 103 173 2 c157 3 173 5 176 21 8 43 -10 47 -212 47 -136 0 -196 -4 -204
-12z"/>
<path d="M5942 4688 c-9 -9 -12 -92 -12 -329 0 -285 2 -318 16 -323 9 -4 25
-4 35 -1 17 6 19 19 19 155 0 107 3 151 12 156 7 5 69 7 138 6 69 -1 131 2
138 6 8 5 12 20 10 33 -3 24 -4 24 -148 29 l-145 5 0 100 0 100 145 5 145 5 0
30 0 30 -170 3 c-124 2 -174 -1 -183 -10z"/>
<path d="M1734 3586 c-65 -22 -104 -45 -156 -94 -99 -92 -130 -211 -89 -335
34 -105 89 -164 199 -215 52 -24 68 -26 182 -26 141 0 179 10 268 70 57 40 64
59 28 76 -22 9 -32 5 -85 -30 -74 -49 -148 -67 -244 -58 -160 15 -272 116
-284 257 -11 115 49 214 165 271 59 30 76 33 152 33 99 0 157 -18 227 -72 41
-31 48 -34 69 -22 13 7 24 18 24 24 0 21 -55 64 -125 97 -65 30 -78 33 -180
35 -70 1 -125 -3 -151 -11z"/>
<path d="M4044 3580 c-158 -56 -244 -171 -245 -328 0 -66 4 -90 25 -135 32
-68 108 -140 184 -175 51 -24 69 -26 177 -27 115 0 123 1 186 32 73 36 143
104 180 174 19 37 23 59 23 134 0 78 -3 97 -26 140 -28 55 -105 133 -157 160
-94 48 -251 60 -347 25z m277 -72 c69 -31 124 -79 152 -132 17 -32 22 -58 22
-121 0 -93 -20 -141 -81 -195 -65 -57 -134 -82 -227 -83 -68 -1 -92 4 -139 25
-157 72 -218 224 -147 366 74 150 263 212 420 140z"/>
<path d="M5414 3576 c-74 -27 -110 -52 -163 -113 -46 -51 -81 -147 -81 -219 0
-112 89 -238 208 -296 64 -32 72 -33 187 -33 115 0 123 2 186 33 75 37 150
109 179 175 27 59 27 205 1 264 -25 53 -93 127 -146 159 -102 59 -259 72 -371
30z m287 -68 c75 -34 123 -79 154 -143 64 -136 0 -294 -146 -360 -52 -23 -76
-27 -148 -28 -73 0 -94 4 -137 26 -70 35 -109 71 -142 126 -23 40 -27 57 -27
126 0 75 3 85 34 133 40 63 80 96 158 128 76 32 173 29 254 -8z"/>
<path d="M6334 3581 c-141 -48 -224 -137 -254 -272 -14 -63 -3 -132 31 -200
29 -59 128 -142 200 -170 56 -21 80 -24 189 -24 113 1 130 3 182 27 104 48
172 139 185 248 l6 50 -162 0 -162 0 3 -27 3 -28 105 -3 c58 -1 109 -7 114
-12 29 -29 -55 -135 -137 -170 -68 -30 -208 -32 -277 -5 -155 62 -238 205
-195 336 24 73 100 148 180 179 118 46 255 29 373 -46 l54 -35 24 22 c23 21
23 23 6 42 -26 29 -90 63 -161 86 -82 27 -232 28 -307 2z"/>
<path d="M438 3573 c-5 -7 -8 -20 -6 -30 3 -15 16 -19 83 -23 l80 -5 5 -295 5
-295 30 0 30 0 5 295 5 295 80 5 c74 5 80 7 83 28 2 12 -3 24 -10 27 -7 2 -96
6 -196 7 -134 2 -186 0 -194 -9z"/>
<path d="M995 3580 l-40 -5 -3 -314 c-2 -223 1 -318 9 -327 18 -22 382 -20
403 2 12 11 13 20 6 34 -10 18 -25 20 -178 22 l-167 3 -3 114 c-2 75 1 118 9
127 9 11 47 14 174 14 170 0 178 2 167 43 -4 15 -20 17 -166 17 -113 0 -166 4
-174 12 -13 13 -17 165 -4 185 6 9 57 13 177 15 l170 3 0 25 0 25 -170 5 c-93
3 -188 3 -210 0z"/>
<path d="M2362 3582 c-9 -3 -12 -83 -12 -327 0 -290 2 -323 16 -329 9 -4 25
-4 35 -1 17 6 19 21 21 158 l3 152 187 3 187 2 3 -151 c3 -132 5 -153 21 -163
12 -8 22 -8 35 0 16 10 17 37 17 330 l0 319 -35 0 -35 0 -3 -133 -3 -132 -187
2 -187 3 -3 131 c-2 128 -3 132 -25 136 -13 2 -28 3 -35 0z"/>
<path d="M6974 3575 c-4 -10 81 -142 188 -289 28 -39 28 -40 28 -191 0 -167 5
-183 55 -171 l25 6 0 158 0 157 110 160 c60 88 110 163 110 168 0 4 -17 7 -38
7 -37 0 -40 -3 -102 -92 -36 -51 -75 -110 -88 -130 -13 -21 -27 -38 -31 -38
-5 0 -25 26 -46 58 -98 148 -142 199 -175 204 -20 3 -34 0 -36 -7z"/>
<path d="M3067 3573 c-4 -3 -7 -149 -7 -324 0 -301 1 -318 19 -324 27 -8 51 4
51 29 1 11 0 116 0 233 0 119 3 214 9 217 6 4 297 -280 469 -460 7 -8 18 -14
23 -14 5 0 9 132 9 326 l0 325 -32 -3 -33 -3 -3 -237 c-1 -131 -6 -238 -11
-238 -5 0 -115 108 -243 240 -129 132 -237 240 -240 240 -2 0 -8 -3 -11 -7z"/>
<path d="M4726 3565 c-3 -9 -6 -153 -6 -320 0 -245 3 -305 14 -314 9 -8 65
-11 177 -9 l164 3 0 30 0 30 -137 3 -138 3 -2 292 -3 292 -31 3 c-22 2 -33 -2
-38 -13z"/>
<path d="M3993 2722 l-3232 -2 -10 -38 c-5 -20 -14 -62 -20 -92 -6 -30 -22
-109 -36 -175 -14 -66 -35 -167 -46 -225 -10 -58 -22 -112 -25 -120 -3 -8 -8
-28 -11 -45 -2 -16 -9 -34 -14 -40 -5 -5 -9 -11 -9 -15 0 -3 481 -6 1069 -7
l1070 -2 3 27 c3 26 5 27 78 32 74 5 75 5 92 41 10 19 22 55 28 80 14 66 47
201 56 228 7 23 6 23 -37 17 -71 -10 -92 -9 -101 8 -10 18 -34 21 -43 6 -8
-13 11 -47 46 -85 55 -58 33 -154 -41 -185 -48 -20 -120 -8 -148 25 -20 24
-25 25 -35 13 -23 -29 -73 -51 -101 -44 -35 9 -43 46 -22 111 9 28 16 59 16
67 0 8 7 29 16 47 22 45 12 48 -33 12 -39 -31 -47 -48 -74 -166 -7 -27 -17
-53 -23 -57 -16 -11 -64 -10 -71 2 -3 5 5 57 19 114 32 128 32 135 4 109 -19
-18 -25 -19 -35 -8 -19 21 -16 29 22 64 39 35 74 51 111 51 20 0 24 -5 24 -31
l0 -30 37 30 c62 51 123 39 123 -23 0 -27 -27 -123 -51 -185 -13 -31 -7 -35
22 -13 15 11 41 18 69 17 40 0 45 -3 48 -25 5 -34 16 -43 41 -35 44 14 44 39
-2 96 -35 44 -42 61 -42 96 0 62 35 95 108 101 34 3 57 0 61 -7 4 -6 31 -11
61 -11 52 0 54 1 60 33 22 100 92 175 186 197 47 12 53 11 71 -8 15 -14 19
-27 14 -45 -8 -31 -31 -40 -75 -27 -22 6 -40 6 -52 -1 -21 -11 -45 -61 -55
-114 l-6 -35 40 0 c28 0 42 -5 46 -16 10 -27 -13 -44 -59 -44 l-43 0 -21 -77
c-11 -43 -25 -100 -31 -127 -16 -72 -53 -146 -93 -186 l-36 -36 866 -2 c831
-1 865 -1 849 17 -35 39 -7 112 57 147 16 9 17 14 6 37 l-12 27 -26 -24 c-50
-46 -91 -57 -117 -32 -19 19 -17 47 6 131 36 125 36 129 13 116 -43 -22 -71
-70 -88 -148 -10 -43 -19 -84 -21 -90 -2 -8 -20 -13 -45 -13 l-41 0 5 38 c2
20 14 73 25 117 27 99 27 102 2 80 -22 -20 -50 -14 -50 10 0 26 71 83 112 90
46 8 58 1 58 -32 l0 -27 29 28 c18 17 44 30 69 33 69 9 74 -26 22 -186 -25
-78 -25 -89 -2 -69 9 9 26 18 36 19 13 3 23 19 32 49 15 50 90 142 134 165 16
8 46 17 67 19 21 3 50 8 66 12 25 6 27 4 27 -24 0 -16 -7 -49 -15 -73 -22 -62
-42 -162 -50 -243 -7 -80 -25 -130 -54 -148 -12 -7 -21 -15 -21 -18 0 -8 2172
-11 2220 -4 32 5 35 8 38 41 1 20 11 79 22 132 11 53 27 132 36 176 34 170 75
361 84 382 6 14 5 22 -3 25 -7 1 -1466 2 -3244 0z m-2092 -85 c26 -57 -36
-107 -133 -107 -30 0 -50 -5 -52 -12 -2 -7 -18 -76 -36 -153 -18 -77 -36 -148
-41 -158 -14 -27 -3 -36 36 -30 27 4 36 2 41 -12 13 -34 -20 -44 -135 -41 -97
2 -106 4 -109 23 -2 15 7 23 36 35 31 12 40 22 47 49 4 19 9 39 10 44 29 100
66 258 62 262 -11 10 -105 -9 -135 -27 -40 -25 -50 -62 -28 -106 22 -48 20
-63 -10 -75 -44 -16 -64 11 -64 86 0 48 5 68 23 91 43 59 63 72 130 88 57 14
80 15 137 7 38 -6 87 -11 109 -11 39 0 41 2 41 29 0 44 53 58 71 18z m2455
-32 c8 -34 0 -53 -30 -67 -33 -14 -56 3 -56 43 0 50 74 71 86 24z m1442 9 c22
-39 -18 -92 -59 -79 -28 9 -35 51 -14 75 22 24 61 26 73 4z m-300 -19 c35 -18
49 -49 32 -70 -17 -21 -50 -18 -75 5 -14 13 -28 18 -40 14 -20 -8 -72 -115
-85 -177 -9 -47 -34 -132 -45 -160 -7 -16 -3 -17 33 -11 25 4 60 0 96 -10 62
-18 80 -14 71 15 -14 44 23 76 61 51 22 -13 20 -59 -3 -90 -32 -43 -74 -54
-169 -43 -43 4 -116 8 -162 7 -70 -1 -83 2 -88 16 -7 25 1 35 35 43 33 7 40
21 70 135 35 132 41 148 74 196 53 79 131 111 195 79z m-3450 -117 c27 -27 2
-77 -39 -78 -32 0 -95 -74 -108 -126 -36 -141 -35 -139 -77 -139 -35 0 -39 2
-38 25 1 14 13 68 27 120 14 52 23 97 20 100 -3 3 -8 -1 -10 -7 -3 -7 -16 -13
-30 -13 -38 0 -26 39 22 72 53 36 91 44 114 24 15 -14 19 -13 46 9 33 27 55
31 73 13z m1689 -9 c4 -14 11 -18 22 -13 43 18 64 17 81 -6 l17 -23 31 23 c24
18 38 21 66 16 22 -4 36 -13 36 -21 0 -19 8 -19 26 0 23 22 62 29 91 16 24
-11 25 -15 19 -60 -3 -27 -18 -81 -31 -121 -26 -77 -26 -93 0 -66 24 23 45 20
45 -7 0 -28 -73 -87 -108 -87 -14 0 -31 8 -38 18 -14 18 -19 74 -7 86 8 8 42
133 43 156 0 9 -12 3 -31 -18 -23 -24 -37 -57 -55 -123 -13 -50 -27 -95 -30
-100 -8 -13 -72 -11 -76 3 -2 6 8 61 24 121 15 61 25 113 22 116 -3 3 -18 -8
-34 -26 -26 -29 -60 -119 -60 -160 0 -33 -29 -63 -60 -63 -16 0 -31 4 -34 9
-5 8 14 115 34 181 16 55 13 66 -9 46 -21 -19 -41 -14 -41 10 0 27 -33 10 -62
-31 -16 -22 -38 -78 -51 -125 -22 -84 -22 -85 -56 -88 -18 -2 -37 0 -42 5 -5
5 2 52 17 108 14 55 29 111 31 125 l6 25 -22 -22 c-12 -12 -28 -20 -35 -17
-11 4 -16 -5 -21 -33 -29 -181 -232 -277 -291 -137 -27 64 10 176 79 242 28
27 45 34 90 39 52 5 58 4 86 -25 17 -17 31 -41 31 -54 1 -22 1 -22 12 -3 31
57 121 101 153 75 8 -7 12 -16 9 -21 -3 -5 0 -9 5 -9 6 0 11 5 11 10 0 14 60
50 83 50 11 0 21 -9 24 -21z m-1437 -5 c0 -8 -11 -54 -24 -102 -13 -48 -26
-102 -30 -121 l-6 -33 24 16 c22 14 56 13 56 -1 0 -31 -98 -103 -141 -103 -19
0 -30 6 -34 20 -6 19 -6 19 -38 0 -46 -28 -81 -26 -107 8 -37 46 -15 134 57
230 37 49 91 81 147 86 26 3 51 7 54 10 12 12 42 5 42 -10z m3441 5 c24 -12
22 -35 -16 -169 -13 -46 -22 -86 -19 -89 2 -2 13 4 24 14 30 28 66 3 42 -30
-4 -6 -26 -25 -48 -43 -65 -50 -114 -40 -114 23 1 33 22 124 39 168 14 35 14
58 0 35 -14 -24 -59 -24 -59 0 0 26 36 61 84 83 49 22 43 21 67 8z m359 -9
c43 -43 0 -169 -86 -257 -59 -59 -110 -93 -140 -93 -19 0 -23 9 -33 63 -16 91
-14 143 8 187 19 39 19 40 0 40 -14 0 -19 -7 -19 -29 0 -16 -6 -34 -14 -40
-22 -18 -56 3 -56 35 0 63 42 90 150 95 67 4 75 2 78 -15 2 -11 -3 -25 -12
-32 -9 -6 -25 -36 -35 -65 -16 -47 -18 -74 -12 -138 1 -20 53 30 92 89 28 42
30 50 23 104 -5 44 -3 61 7 67 20 13 27 11 49 -11z m-1780 -13 c0 -12 -11 -56
-24 -97 -13 -41 -27 -90 -31 -109 -7 -33 -7 -33 15 -18 26 18 50 12 50 -11 0
-40 -116 -108 -149 -87 -18 11 -11 106 13 180 24 72 25 88 4 67 -7 -7 -20 -12
-30 -12 -29 0 -21 38 14 68 40 34 55 40 101 41 32 1 37 -2 37 -22z m2007 17
c31 -8 43 -51 27 -91 -15 -36 -58 -70 -122 -98 -37 -16 -43 -22 -40 -44 4 -35
27 -37 72 -6 43 29 64 32 73 8 5 -11 -5 -27 -33 -51 -77 -67 -148 -81 -184
-34 -56 69 21 271 119 314 20 8 60 9 88 2z m266 -3 c34 -13 44 -47 21 -72 -22
-25 -38 -24 -63 2 -21 23 -51 20 -51 -5 0 -7 18 -35 39 -61 22 -26 42 -58 45
-71 9 -35 -18 -91 -56 -114 -47 -30 -129 -24 -165 12 -23 24 -24 28 -12 54 8
16 22 30 32 32 23 5 47 -15 47 -39 0 -25 14 -31 44 -19 36 13 33 40 -9 90 -59
70 -49 162 20 191 28 11 79 11 108 0z"/>
<path d="M3287 2396 c-42 -32 -57 -177 -22 -206 34 -28 74 27 82 114 8 90 -15
126 -60 92z"/>
<path d="M2150 2387 c-46 -23 -98 -153 -72 -179 16 -16 60 16 77 55 13 28 38
114 37 127 -1 10 -18 9 -42 -3z"/>
<path d="M6230 2378 c-33 -54 -22 -65 23 -24 17 15 24 31 21 40 -9 24 -22 19
-44 -16z"/>
<path d="M4819 2377 c-42 -32 -77 -161 -46 -173 33 -12 86 70 87 133 0 12 5
25 10 28 6 3 10 10 10 16 0 13 -42 11 -61 -4z"/>
<path d="M4783 2132 c-94 -62 -121 -100 -91 -130 18 -18 62 -15 89 7 26 20 53
95 47 130 -3 20 -4 20 -45 -7z"/>
</g>
</svg>
